<?xml version="1.0" encoding="UTF-8" standalone="no"?>
<!DOCTYPE svg PUBLIC "-//W3C//DTD SVG 1.1//EN"
 "http://www.w3.org/Graphics/SVG/1.1/DTD/svg11.dtd">
<!-- Generated by graphviz version 9.0.0 (20230911.1827)
 -->
<!-- Title: mygraph Pages: 1 -->
<svg width="1949pt" height="719pt"
 viewBox="0.00 0.00 1949.25 718.50" xmlns="http://www.w3.org/2000/svg" xmlns:xlink="http://www.w3.org/1999/xlink">
<g id="graph0" class="graph" transform="scale(1 1) rotate(0) translate(4 714.5)">
<title>mygraph</title>
<polygon fill="white" stroke="none" points="-4,4 -4,-714.5 1945.25,-714.5 1945.25,4 -4,4"/>
<!-- //main:hello&#45;world -->
<g id="node1" class="node">
<title>//main:hello&#45;world</title>
<polygon fill="none" stroke="black" points="350.88,-710.5 232.88,-710.5 232.88,-674.5 350.88,-674.5 350.88,-710.5"/>
<text text-anchor="middle" x="291.88" y="-687.45" font-family="Times,serif" font-size="14.00">//main:hello&#45;world</text>
</g>
<!-- //main:hello&#45;world.cc -->
<g id="node2" class="node">
<title>//main:hello&#45;world.cc</title>
<polygon fill="none" stroke="black" points="133.75,-638.5 0,-638.5 0,-602.5 133.75,-602.5 133.75,-638.5"/>
<text text-anchor="middle" x="66.88" y="-615.45" font-family="Times,serif" font-size="14.00">//main:hello&#45;world.cc</text>
</g>
<!-- //main:hello&#45;world&#45;&gt;//main:hello&#45;world.cc -->
<g id="edge1" class="edge">
<title>//main:hello&#45;world&#45;&gt;//main:hello&#45;world.cc</title>
<path fill="none" stroke="black" d="M235.68,-674.02C204.69,-664.38 166.02,-652.34 133.51,-642.23"/>
<polygon fill="black" stroke="black" points="134.78,-638.96 124.19,-639.33 132.7,-645.64 134.78,-638.96"/>
</g>
<!-- //main:hello&#45;greet -->
<g id="node3" class="node">
<title>//main:hello&#45;greet</title>
<polygon fill="none" stroke="black" points="348.62,-638.5 235.12,-638.5 235.12,-602.5 348.62,-602.5 348.62,-638.5"/>
<text text-anchor="middle" x="291.88" y="-615.45" font-family="Times,serif" font-size="14.00">//main:hello&#45;greet</text>
</g>
<!-- //main:hello&#45;world&#45;&gt;//main:hello&#45;greet -->
<g id="edge2" class="edge">
<title>//main:hello&#45;world&#45;&gt;//main:hello&#45;greet</title>
<path fill="none" stroke="black" d="M291.88,-674.2C291.88,-666.91 291.88,-658.23 291.88,-650.04"/>
<polygon fill="black" stroke="black" points="295.38,-650.12 291.88,-640.12 288.38,-650.12 295.38,-650.12"/>
</g>
<!-- //lib:hello&#45;time -->
<g id="node4" class="node">
<title>//lib:hello&#45;time</title>
<polygon fill="none" stroke="black" points="472.75,-638.5 375,-638.5 375,-602.5 472.75,-602.5 472.75,-638.5"/>
<text text-anchor="middle" x="423.88" y="-615.45" font-family="Times,serif" font-size="14.00">//lib:hello&#45;time</text>
</g>
<!-- //main:hello&#45;world&#45;&gt;//lib:hello&#45;time -->
<g id="edge3" class="edge">
<title>//main:hello&#45;world&#45;&gt;//lib:hello&#45;time</title>
<path fill="none" stroke="black" d="M324.84,-674.02C341.9,-664.97 362.93,-653.82 381.21,-644.12"/>
<polygon fill="black" stroke="black" points="382.79,-647.25 389.99,-639.47 379.51,-641.06 382.79,-647.25"/>
</g>
<!-- @bazel_tools//tools/cpp:malloc -->
<g id="node5" class="node">
<title>@bazel_tools//tools/cpp:malloc</title>
<polygon fill="none" stroke="black" points="640.12,-489.5 451.62,-489.5 451.62,-453.5 640.12,-453.5 640.12,-489.5"/>
<text text-anchor="middle" x="545.88" y="-466.45" font-family="Times,serif" font-size="14.00">@bazel_tools//tools/cpp:malloc</text>
</g>
<!-- //main:hello&#45;world&#45;&gt;@bazel_tools//tools/cpp:malloc -->
<g id="edge4" class="edge">
<title>//main:hello&#45;world&#45;&gt;@bazel_tools//tools/cpp:malloc</title>
<path fill="none" stroke="black" d="M351.07,-686.62C421.42,-677.11 534.37,-649.08 574.88,-566.5 585.46,-544.92 575.65,-518.67 564.66,-499.39"/>
<polygon fill="black" stroke="black" points="567.74,-497.73 559.53,-491.04 561.78,-501.39 567.74,-497.73"/>
</g>
<!-- @bazel_tools//tools/cpp:link_extra_lib -->
<g id="node6" class="node">
<title>@bazel_tools//tools/cpp:link_extra_lib</title>
<polygon fill="none" stroke="black" points="848.25,-638.5 621.5,-638.5 621.5,-602.5 848.25,-602.5 848.25,-638.5"/>
<text text-anchor="middle" x="734.88" y="-615.45" font-family="Times,serif" font-size="14.00">@bazel_tools//tools/cpp:link_extra_lib</text>
</g>
<!-- //main:hello&#45;world&#45;&gt;@bazel_tools//tools/cpp:link_extra_lib -->
<g id="edge5" class="edge">
<title>//main:hello&#45;world&#45;&gt;@bazel_tools//tools/cpp:link_extra_lib</title>
<path fill="none" stroke="black" d="M351.16,-682.13C417.84,-671.6 527.92,-654.2 613.12,-640.74"/>
<polygon fill="black" stroke="black" points="613.62,-644.2 622.95,-639.19 612.52,-637.29 613.62,-644.2"/>
</g>
<!-- @bazel_tools//tools/cpp:toolchain_type -->
<g id="node7" class="node">
<title>@bazel_tools//tools/cpp:toolchain_type</title>
<polygon fill="none" stroke="black" points="277.5,-129.5 46.25,-129.5 46.25,-93.5 277.5,-93.5 277.5,-129.5"/>
<text text-anchor="middle" x="161.88" y="-106.45" font-family="Times,serif" font-size="14.00">@bazel_tools//tools/cpp:toolchain_type</text>
</g>
<!-- //main:hello&#45;world&#45;&gt;@bazel_tools//tools/cpp:toolchain_type -->
<g id="edge6" class="edge">
<title>//main:hello&#45;world&#45;&gt;@bazel_tools//tools/cpp:toolchain_type</title>
<path fill="none" stroke="black" d="M256.61,-674.08C240.9,-665.05 223.02,-652.89 209.88,-638.5 178.91,-604.59 161.88,-592.92 161.88,-547 161.88,-547 161.88,-547 161.88,-254.5 161.88,-215.24 161.88,-169.88 161.88,-141.19"/>
<polygon fill="black" stroke="black" points="165.38,-141.5 161.88,-131.5 158.38,-141.5 165.38,-141.5"/>
</g>
<!-- @bazel_tools//tools/cpp:current_cc_toolchain -->
<g id="node8" class="node">
<title>@bazel_tools//tools/cpp:current_cc_toolchain</title>
<polygon fill="none" stroke="black" points="578.38,-417.5 313.38,-417.5 313.38,-381.5 578.38,-381.5 578.38,-417.5"/>
<text text-anchor="middle" x="445.88" y="-394.45" font-family="Times,serif" font-size="14.00">@bazel_tools//tools/cpp:current_cc_toolchain</text>
</g>
<!-- //main:hello&#45;world&#45;&gt;@bazel_tools//tools/cpp:current_cc_toolchain -->
<g id="edge7" class="edge">
<title>//main:hello&#45;world&#45;&gt;@bazel_tools//tools/cpp:current_cc_toolchain</title>
<path fill="none" stroke="black" d="M259.47,-674.14C246.51,-665.34 232.99,-653.34 225.88,-638.5 188.73,-561.04 217.68,-510.58 281.88,-453.5 297.51,-439.6 316.84,-429.33 336.69,-421.76"/>
<polygon fill="black" stroke="black" points="337.75,-425.1 345.99,-418.44 335.39,-418.5 337.75,-425.1"/>
</g>
<!-- //main:hello&#45;greet&#45;&gt;@bazel_tools//tools/cpp:current_cc_toolchain -->
<g id="edge12" class="edge">
<title>//main:hello&#45;greet&#45;&gt;@bazel_tools//tools/cpp:current_cc_toolchain</title>
<path fill="none" stroke="black" d="M276.86,-602.26C261.97,-582.93 243.19,-550.96 256.88,-525.5 283.86,-475.3 340.84,-441.88 385.22,-422.33"/>
<polygon fill="black" stroke="black" points="386.41,-425.63 394.23,-418.49 383.66,-419.19 386.41,-425.63"/>
</g>
<!-- //main:hello&#45;greet.cc\n//main:hello&#45;greet.h -->
<g id="node10" class="node">
<title>//main:hello&#45;greet.cc\n//main:hello&#45;greet.h</title>
<polygon fill="none" stroke="black" points="395.5,-566.5 266.25,-566.5 266.25,-525.5 395.5,-525.5 395.5,-566.5"/>
<text text-anchor="middle" x="330.88" y="-549.2" font-family="Times,serif" font-size="14.00">//main:hello&#45;greet.cc</text>
<text text-anchor="middle" x="330.88" y="-532.7" font-family="Times,serif" font-size="14.00">//main:hello&#45;greet.h</text>
</g>
<!-- //main:hello&#45;greet&#45;&gt;//main:hello&#45;greet.cc\n//main:hello&#45;greet.h -->
<g id="edge11" class="edge">
<title>//main:hello&#45;greet&#45;&gt;//main:hello&#45;greet.cc\n//main:hello&#45;greet.h</title>
<path fill="none" stroke="black" d="M301.12,-602.32C305.23,-594.67 310.19,-585.45 314.88,-576.74"/>
<polygon fill="black" stroke="black" points="317.81,-578.68 319.46,-568.21 311.64,-575.36 317.81,-578.68"/>
</g>
<!-- //lib:hello&#45;time&#45;&gt;@bazel_tools//tools/cpp:current_cc_toolchain -->
<g id="edge10" class="edge">
<title>//lib:hello&#45;time&#45;&gt;@bazel_tools//tools/cpp:current_cc_toolchain</title>
<path fill="none" stroke="black" d="M425.6,-602.32C429.37,-564.83 438.35,-475.37 442.99,-429.19"/>
<polygon fill="black" stroke="black" points="446.46,-429.71 443.97,-419.41 439.49,-429.01 446.46,-429.71"/>
</g>
<!-- //lib:hello&#45;time.h\n//lib:hello&#45;time.cc -->
<g id="node9" class="node">
<title>//lib:hello&#45;time.h\n//lib:hello&#45;time.cc</title>
<polygon fill="none" stroke="black" points="565.62,-566.5 452.12,-566.5 452.12,-525.5 565.62,-525.5 565.62,-566.5"/>
<text text-anchor="middle" x="508.88" y="-549.2" font-family="Times,serif" font-size="14.00">//lib:hello&#45;time.h</text>
<text text-anchor="middle" x="508.88" y="-532.7" font-family="Times,serif" font-size="14.00">//lib:hello&#45;time.cc</text>
</g>
<!-- //lib:hello&#45;time&#45;&gt;//lib:hello&#45;time.h\n//lib:hello&#45;time.cc -->
<g id="edge9" class="edge">
<title>//lib:hello&#45;time&#45;&gt;//lib:hello&#45;time.h\n//lib:hello&#45;time.cc</title>
<path fill="none" stroke="black" d="M444.02,-602.32C453.86,-593.93 465.93,-583.63 476.98,-574.2"/>
<polygon fill="black" stroke="black" points="479.08,-577.02 484.41,-567.86 474.53,-571.69 479.08,-577.02"/>
</g>
<!-- @bazel_tools//tools/cpp:malloc&#45;&gt;@bazel_tools//tools/cpp:current_cc_toolchain -->
<g id="edge8" class="edge">
<title>@bazel_tools//tools/cpp:malloc&#45;&gt;@bazel_tools//tools/cpp:current_cc_toolchain</title>
<path fill="none" stroke="black" d="M520.9,-453.02C508.52,-444.35 493.37,-433.75 479.95,-424.35"/>
<polygon fill="black" stroke="black" points="481.97,-421.5 471.77,-418.63 477.96,-427.23 481.97,-421.5"/>
</g>
<!-- @bazel_tools//tools/cpp:link_extra_lib&#45;&gt;@bazel_tools//tools/cpp:current_cc_toolchain -->
<g id="edge14" class="edge">
<title>@bazel_tools//tools/cpp:link_extra_lib&#45;&gt;@bazel_tools//tools/cpp:current_cc_toolchain</title>
<path fill="none" stroke="black" d="M715.96,-602.35C706.16,-592.63 694.66,-579.78 686.88,-566.5 660.08,-520.79 687.61,-489.65 648.88,-453.5 632.11,-437.86 611.32,-426.7 589.49,-418.77"/>
<polygon fill="black" stroke="black" points="590.73,-415.5 580.14,-415.62 588.5,-422.13 590.73,-415.5"/>
</g>
<!-- @bazel_tools//tools/cpp:link_extra_libs -->
<g id="node11" class="node">
<title>@bazel_tools//tools/cpp:link_extra_libs</title>
<polygon fill="none" stroke="black" points="927.88,-564 695.88,-564 695.88,-528 927.88,-528 927.88,-564"/>
<text text-anchor="middle" x="811.88" y="-540.95" font-family="Times,serif" font-size="14.00">@bazel_tools//tools/cpp:link_extra_libs</text>
</g>
<!-- @bazel_tools//tools/cpp:link_extra_lib&#45;&gt;@bazel_tools//tools/cpp:link_extra_libs -->
<g id="edge13" class="edge">
<title>@bazel_tools//tools/cpp:link_extra_lib&#45;&gt;@bazel_tools//tools/cpp:link_extra_libs</title>
<path fill="none" stroke="black" d="M753.12,-602.32C762.74,-593.27 774.71,-581.99 785.33,-571.99"/>
<polygon fill="black" stroke="black" points="787.51,-574.75 792.39,-565.35 782.71,-569.65 787.51,-574.75"/>
</g>
<!-- @bazel_tools//tools/cpp:current_cc_toolchain&#45;&gt;@bazel_tools//tools/cpp:toolchain_type -->
<g id="edge18" class="edge">
<title>@bazel_tools//tools/cpp:current_cc_toolchain&#45;&gt;@bazel_tools//tools/cpp:toolchain_type</title>
<path fill="none" stroke="black" d="M404.52,-381.05C385.81,-372.02 364.09,-359.87 346.88,-345.5 272.23,-283.18 207.32,-186.51 178.2,-139.72"/>
<polygon fill="black" stroke="black" points="181.23,-137.97 173.01,-131.28 175.27,-141.63 181.23,-137.97"/>
</g>
<!-- @bazel_tools//tools/cpp:toolchain -->
<g id="node13" class="node">
<title>@bazel_tools//tools/cpp:toolchain</title>
<polygon fill="none" stroke="black" points="557.5,-345.5 356.25,-345.5 356.25,-309.5 557.5,-309.5 557.5,-345.5"/>
<text text-anchor="middle" x="456.88" y="-322.45" font-family="Times,serif" font-size="14.00">@bazel_tools//tools/cpp:toolchain</text>
</g>
<!-- @bazel_tools//tools/cpp:current_cc_toolchain&#45;&gt;@bazel_tools//tools/cpp:toolchain -->
<g id="edge17" class="edge">
<title>@bazel_tools//tools/cpp:current_cc_toolchain&#45;&gt;@bazel_tools//tools/cpp:toolchain</title>
<path fill="none" stroke="black" d="M448.59,-381.2C449.75,-373.82 451.14,-365.02 452.44,-356.75"/>
<polygon fill="black" stroke="black" points="455.86,-357.52 453.95,-347.1 448.94,-356.43 455.86,-357.52"/>
</g>
<!-- @bazel_tools//tools/cpp:empty_lib -->
<g id="node12" class="node">
<title>@bazel_tools//tools/cpp:empty_lib</title>
<polygon fill="none" stroke="black" points="908.12,-489.5 701.62,-489.5 701.62,-453.5 908.12,-453.5 908.12,-489.5"/>
<text text-anchor="middle" x="804.88" y="-466.45" font-family="Times,serif" font-size="14.00">@bazel_tools//tools/cpp:empty_lib</text>
</g>
<!-- @bazel_tools//tools/cpp:link_extra_libs&#45;&gt;@bazel_tools//tools/cpp:empty_lib -->
<g id="edge15" class="edge">
<title>@bazel_tools//tools/cpp:link_extra_libs&#45;&gt;@bazel_tools//tools/cpp:empty_lib</title>
<path fill="none" stroke="black" d="M810.22,-527.82C809.44,-519.78 808.5,-510 807.62,-500.91"/>
<polygon fill="black" stroke="black" points="811.11,-500.68 806.67,-491.06 804.14,-501.35 811.11,-500.68"/>
</g>
<!-- @bazel_tools//tools/cpp:empty_lib&#45;&gt;@bazel_tools//tools/cpp:current_cc_toolchain -->
<g id="edge16" class="edge">
<title>@bazel_tools//tools/cpp:empty_lib&#45;&gt;@bazel_tools//tools/cpp:current_cc_toolchain</title>
<path fill="none" stroke="black" d="M715.21,-453.02C663.93,-443.02 599.46,-430.45 546.46,-420.11"/>
<polygon fill="black" stroke="black" points="547.3,-416.71 536.82,-418.23 545.96,-423.58 547.3,-416.71"/>
</g>
<!-- @@bazel_tools~cc_configure_extension~local_config_cc//:toolchain -->
<g id="node14" class="node">
<title>@@bazel_tools~cc_configure_extension~local_config_cc//:toolchain</title>
<polygon fill="none" stroke="black" points="702.25,-273.5 307.5,-273.5 307.5,-237.5 702.25,-237.5 702.25,-273.5"/>
<text text-anchor="middle" x="504.88" y="-250.45" font-family="Times,serif" font-size="14.00">@@bazel_tools~cc_configure_extension~local_config_cc//:toolchain</text>
</g>
<!-- @bazel_tools//tools/cpp:toolchain&#45;&gt;@@bazel_tools~cc_configure_extension~local_config_cc//:toolchain -->
<g id="edge19" class="edge">
<title>@bazel_tools//tools/cpp:toolchain&#45;&gt;@@bazel_tools~cc_configure_extension~local_config_cc//:toolchain</title>
<path fill="none" stroke="black" d="M468.74,-309.2C474.15,-301.31 480.67,-291.8 486.67,-283.05"/>
<polygon fill="black" stroke="black" points="489.52,-285.08 492.29,-274.85 483.75,-281.12 489.52,-285.08"/>
</g>
<!-- @@bazel_tools~cc_configure_extension~local_config_cc//:cc&#45;compiler&#45;darwin_arm64 -->
<g id="node15" class="node">
<title>@@bazel_tools~cc_configure_extension~local_config_cc//:cc&#45;compiler&#45;darwin_arm64</title>
<polygon fill="none" stroke="black" points="1257.75,-201.5 764,-201.5 764,-165.5 1257.75,-165.5 1257.75,-201.5"/>
<text text-anchor="middle" x="1010.88" y="-178.45" font-family="Times,serif" font-size="14.00">@@bazel_tools~cc_configure_extension~local_config_cc//:cc&#45;compiler&#45;darwin_arm64</text>
</g>
<!-- @@bazel_tools~cc_configure_extension~local_config_cc//:toolchain&#45;&gt;@@bazel_tools~cc_configure_extension~local_config_cc//:cc&#45;compiler&#45;darwin_arm64 -->
<g id="edge20" class="edge">
<title>@@bazel_tools~cc_configure_extension~local_config_cc//:toolchain&#45;&gt;@@bazel_tools~cc_configure_extension~local_config_cc//:cc&#45;compiler&#45;darwin_arm64</title>
<path fill="none" stroke="black" d="M631.25,-237.02C705.05,-226.81 798.21,-213.92 873.77,-203.47"/>
<polygon fill="black" stroke="black" points="873.87,-206.99 883.29,-202.15 872.91,-200.05 873.87,-206.99"/>
</g>
<!-- @@bazel_tools~cc_configure_extension~local_config_cc//:cc&#45;compiler&#45;armeabi&#45;v7a -->
<g id="node16" class="node">
<title>@@bazel_tools~cc_configure_extension~local_config_cc//:cc&#45;compiler&#45;armeabi&#45;v7a</title>
<polygon fill="none" stroke="black" points="746.12,-201.5 263.62,-201.5 263.62,-165.5 746.12,-165.5 746.12,-201.5"/>
<text text-anchor="middle" x="504.88" y="-178.45" font-family="Times,serif" font-size="14.00">@@bazel_tools~cc_configure_extension~local_config_cc//:cc&#45;compiler&#45;armeabi&#45;v7a</text>
</g>
<!-- @@bazel_tools~cc_configure_extension~local_config_cc//:toolchain&#45;&gt;@@bazel_tools~cc_configure_extension~local_config_cc//:cc&#45;compiler&#45;armeabi&#45;v7a -->
<g id="edge21" class="edge">
<title>@@bazel_tools~cc_configure_extension~local_config_cc//:toolchain&#45;&gt;@@bazel_tools~cc_configure_extension~local_config_cc//:cc&#45;compiler&#45;armeabi&#45;v7a</title>
<path fill="none" stroke="black" d="M504.88,-237.2C504.88,-229.91 504.88,-221.23 504.88,-213.04"/>
<polygon fill="black" stroke="black" points="508.38,-213.12 504.88,-203.12 501.38,-213.12 508.38,-213.12"/>
</g>
<!-- @@bazel_tools~cc_configure_extension~local_config_cc//:cc&#45;compiler&#45;darwin_arm64&#45;&gt;@bazel_tools//tools/cpp:toolchain_type -->
<g id="edge28" class="edge">
<title>@@bazel_tools~cc_configure_extension~local_config_cc//:cc&#45;compiler&#45;darwin_arm64&#45;&gt;@bazel_tools//tools/cpp:toolchain_type</title>
<path fill="none" stroke="black" d="M763.7,-166.05C597.55,-154.69 392.23,-139.99 289.38,-129.7"/>
<polygon fill="black" stroke="black" points="289.76,-126.23 279.46,-128.69 289.05,-133.19 289.76,-126.23"/>
</g>
<!-- @bazel_tools//tools/build_defs/build_info:cc_build_info -->
<g id="node18" class="node">
<title>@bazel_tools//tools/build_defs/build_info:cc_build_info</title>
<polygon fill="none" stroke="black" points="1079.62,-129.5 756.12,-129.5 756.12,-93.5 1079.62,-93.5 1079.62,-129.5"/>
<text text-anchor="middle" x="917.88" y="-106.45" font-family="Times,serif" font-size="14.00">@bazel_tools//tools/build_defs/build_info:cc_build_info</text>
</g>
<!-- @@bazel_tools~cc_configure_extension~local_config_cc//:cc&#45;compiler&#45;darwin_arm64&#45;&gt;@bazel_tools//tools/build_defs/build_info:cc_build_info -->
<g id="edge27" class="edge">
<title>@@bazel_tools~cc_configure_extension~local_config_cc//:cc&#45;compiler&#45;darwin_arm64&#45;&gt;@bazel_tools//tools/build_defs/build_info:cc_build_info</title>
<path fill="none" stroke="black" d="M987.89,-165.2C976.48,-156.61 962.52,-146.11 950.08,-136.74"/>
<polygon fill="black" stroke="black" points="952.23,-133.97 942.13,-130.76 948.02,-139.57 952.23,-133.97"/>
</g>
<!-- @@bazel_tools~cc_configure_extension~local_config_cc//:module.modulemap -->
<g id="node19" class="node">
<title>@@bazel_tools~cc_configure_extension~local_config_cc//:module.modulemap</title>
<polygon fill="none" stroke="black" points="1552.25,-129.5 1097.5,-129.5 1097.5,-93.5 1552.25,-93.5 1552.25,-129.5"/>
<text text-anchor="middle" x="1324.88" y="-106.45" font-family="Times,serif" font-size="14.00">@@bazel_tools~cc_configure_extension~local_config_cc//:module.modulemap</text>
</g>
<!-- @@bazel_tools~cc_configure_extension~local_config_cc//:cc&#45;compiler&#45;darwin_arm64&#45;&gt;@@bazel_tools~cc_configure_extension~local_config_cc//:module.modulemap -->
<g id="edge25" class="edge">
<title>@@bazel_tools~cc_configure_extension~local_config_cc//:cc&#45;compiler&#45;darwin_arm64&#45;&gt;@@bazel_tools~cc_configure_extension~local_config_cc//:module.modulemap</title>
<path fill="none" stroke="black" d="M1089.3,-165.02C1133.69,-155.12 1189.36,-142.71 1235.44,-132.44"/>
<polygon fill="black" stroke="black" points="1236.16,-135.86 1245.16,-130.27 1234.63,-129.03 1236.16,-135.86"/>
</g>
<!-- @@bazel_tools~cc_configure_extension~local_config_cc//:local -->
<g id="node20" class="node">
<title>@@bazel_tools~cc_configure_extension~local_config_cc//:local</title>
<polygon fill="none" stroke="black" points="1941.25,-129.5 1570.5,-129.5 1570.5,-93.5 1941.25,-93.5 1941.25,-129.5"/>
<text text-anchor="middle" x="1755.88" y="-106.45" font-family="Times,serif" font-size="14.00">@@bazel_tools~cc_configure_extension~local_config_cc//:local</text>
</g>
<!-- @@bazel_tools~cc_configure_extension~local_config_cc//:cc&#45;compiler&#45;darwin_arm64&#45;&gt;@@bazel_tools~cc_configure_extension~local_config_cc//:local -->
<g id="edge26" class="edge">
<title>@@bazel_tools~cc_configure_extension~local_config_cc//:cc&#45;compiler&#45;darwin_arm64&#45;&gt;@@bazel_tools~cc_configure_extension~local_config_cc//:local</title>
<path fill="none" stroke="black" d="M1196.95,-165.02C1307.16,-154.66 1446.7,-141.55 1558.79,-131.02"/>
<polygon fill="black" stroke="black" points="1559.1,-134.5 1568.73,-130.08 1558.45,-127.53 1559.1,-134.5"/>
</g>
<!-- @@bazel_tools~cc_configure_extension~local_config_cc//:cc&#45;compiler&#45;armeabi&#45;v7a&#45;&gt;@bazel_tools//tools/cpp:toolchain_type -->
<g id="edge24" class="edge">
<title>@@bazel_tools~cc_configure_extension~local_config_cc//:cc&#45;compiler&#45;armeabi&#45;v7a&#45;&gt;@bazel_tools//tools/cpp:toolchain_type</title>
<path fill="none" stroke="black" d="M419.21,-165.02C370.41,-155.06 309.13,-142.55 258.61,-132.24"/>
<polygon fill="black" stroke="black" points="259.32,-128.82 248.83,-130.25 257.92,-135.67 259.32,-128.82"/>
</g>
<!-- @@bazel_tools~cc_configure_extension~local_config_cc//:stub_armeabi&#45;v7a -->
<g id="node17" class="node">
<title>@@bazel_tools~cc_configure_extension~local_config_cc//:stub_armeabi&#45;v7a</title>
<polygon fill="none" stroke="black" points="737.88,-129.5 295.88,-129.5 295.88,-93.5 737.88,-93.5 737.88,-129.5"/>
<text text-anchor="middle" x="516.88" y="-106.45" font-family="Times,serif" font-size="14.00">@@bazel_tools~cc_configure_extension~local_config_cc//:stub_armeabi&#45;v7a</text>
</g>
<!-- @@bazel_tools~cc_configure_extension~local_config_cc//:cc&#45;compiler&#45;armeabi&#45;v7a&#45;&gt;@@bazel_tools~cc_configure_extension~local_config_cc//:stub_armeabi&#45;v7a -->
<g id="edge22" class="edge">
<title>@@bazel_tools~cc_configure_extension~local_config_cc//:cc&#45;compiler&#45;armeabi&#45;v7a&#45;&gt;@@bazel_tools~cc_configure_extension~local_config_cc//:stub_armeabi&#45;v7a</title>
<path fill="none" stroke="black" d="M507.84,-165.2C509.11,-157.82 510.61,-149.02 512.03,-140.75"/>
<polygon fill="black" stroke="black" points="515.45,-141.54 513.69,-131.1 508.55,-140.36 515.45,-141.54"/>
</g>
<!-- @@bazel_tools~cc_configure_extension~local_config_cc//:cc&#45;compiler&#45;armeabi&#45;v7a&#45;&gt;@bazel_tools//tools/build_defs/build_info:cc_build_info -->
<g id="edge23" class="edge">
<title>@@bazel_tools~cc_configure_extension~local_config_cc//:cc&#45;compiler&#45;armeabi&#45;v7a&#45;&gt;@bazel_tools//tools/build_defs/build_info:cc_build_info</title>
<path fill="none" stroke="black" d="M608.03,-165.02C667.52,-154.93 742.43,-142.24 803.69,-131.85"/>
<polygon fill="black" stroke="black" points="804.2,-135.32 813.47,-130.2 803.03,-128.42 804.2,-135.32"/>
</g>
<!-- @bazel_tools//tools/build_defs/build_info/templates:volatile_file.h.template\n@bazel_tools//tools/build_defs/build_info/templates:redacted_file.h.template\n@bazel_tools//tools/build_defs/build_info/templates:non_volatile_file.h.template -->
<g id="node21" class="node">
<title>@bazel_tools//tools/build_defs/build_info/templates:volatile_file.h.template\n@bazel_tools//tools/build_defs/build_info/templates:redacted_file.h.template\n@bazel_tools//tools/build_defs/build_info/templates:non_volatile_file.h.template</title>
<polygon fill="none" stroke="black" points="1147.12,-57.5 688.62,-57.5 688.62,0 1147.12,0 1147.12,-57.5"/>
<text text-anchor="middle" x="917.88" y="-40.2" font-family="Times,serif" font-size="14.00">@bazel_tools//tools/build_defs/build_info/templates:volatile_file.h.template</text>
<text text-anchor="middle" x="917.88" y="-23.7" font-family="Times,serif" font-size="14.00">@bazel_tools//tools/build_defs/build_info/templates:redacted_file.h.template</text>
<text text-anchor="middle" x="917.88" y="-7.2" font-family="Times,serif" font-size="14.00">@bazel_tools//tools/build_defs/build_info/templates:non_volatile_file.h.template</text>
</g>
<!-- @bazel_tools//tools/build_defs/build_info:cc_build_info&#45;&gt;@bazel_tools//tools/build_defs/build_info/templates:volatile_file.h.template\n@bazel_tools//tools/build_defs/build_info/templates:redacted_file.h.template\n@bazel_tools//tools/build_defs/build_info/templates:non_volatile_file.h.template -->
<g id="edge29" class="edge">
<title>@bazel_tools//tools/build_defs/build_info:cc_build_info&#45;&gt;@bazel_tools//tools/build_defs/build_info/templates:volatile_file.h.template\n@bazel_tools//tools/build_defs/build_info/templates:redacted_file.h.template\n@bazel_tools//tools/build_defs/build_info/templates:non_volatile_file.h.template</title>
<path fill="none" stroke="black" d="M917.88,-93.38C917.88,-86.31 917.88,-77.8 917.88,-69.34"/>
<polygon fill="black" stroke="black" points="921.38,-69.48 917.88,-59.48 914.38,-69.48 921.38,-69.48"/>
</g>
<!-- @bazel_tools//tools/objc:host_xcodes -->
<g id="node22" class="node">
<title>@bazel_tools//tools/objc:host_xcodes</title>
<polygon fill="none" stroke="black" points="1866.62,-46.75 1645.12,-46.75 1645.12,-10.75 1866.62,-10.75 1866.62,-46.75"/>
<text text-anchor="middle" x="1755.88" y="-23.7" font-family="Times,serif" font-size="14.00">@bazel_tools//tools/objc:host_xcodes</text>
</g>
<!-- @@bazel_tools~cc_configure_extension~local_config_cc//:local&#45;&gt;@bazel_tools//tools/objc:host_xcodes -->
<g id="edge30" class="edge">
<title>@@bazel_tools~cc_configure_extension~local_config_cc//:local&#45;&gt;@bazel_tools//tools/objc:host_xcodes</title>
<path fill="none" stroke="black" d="M1755.88,-93.38C1755.88,-83.27 1755.88,-70.23 1755.88,-58.58"/>
<polygon fill="black" stroke="black" points="1759.38,-58.64 1755.88,-48.64 1752.38,-58.64 1759.38,-58.64"/>
</g>
</g>
</svg>
